<svg id="Layer_1" data-name="Layer 1" xmlns="http://www.w3.org/2000/svg" viewBox="0 0 248 291"><defs><style>.cls-1,.cls-4{fill:#ffbffb;}.cls-1,.cls-5,.cls-6{fill-rule:evenodd;}.cls-2,.cls-3,.cls-7,.cls-8{fill:none;stroke-linecap:round;stroke-width:0.57px;}.cls-2,.cls-3{stroke:#000;}.cls-2,.cls-8{stroke-linejoin:round;}.cls-3,.cls-7{stroke-miterlimit:22.93;}.cls-6{fill:#fff;}.cls-7,.cls-8{stroke:#373435;}</style></defs><title>Chubbs_2 by growwwkit</title><path class="cls-1" d="M127.57,164.42c1.22.25,4.59,4.8,5.16,6.06.9,2,2.16,6.22,5.17,5.1,2.64-1,.65-6-.5-7.31-.43-.5-2.86-3.74-1.06-3.74,1.4,0,5.21,2.57,4.8,2.94,2.19,2.21,2.43,6.67,2.68,7.5,1.35,3.27,3,2.32,3.93,1.32.49-.5.38-1.76.82-2,1.25-.67,1.94-2.6.49-6.1-1.26-3-3.91-5.95-8.35-9.75-8.45-6.64-39.51-31.64-47.37-49.51-5,4.6-4.22,17.89,1.09,23.06,3,2.93,5.57,6.77,8.64,10.05a19.21,19.21,0,0,1,1.46,2Z"/><path class="cls-2" d="M145,176.73c-1.85,2-4.57-.14-4.17-2.76.51-3.39,1.23-5-2-8.39"/><path class="cls-2" d="M148.63,174.27c-.7,4.21-4.85,3-5.17-.05-.36-3.4-.74-5.23-3.61-7.92"/><polygon class="cls-1" points="139.44 172.98 143.11 171.9 163.17 240.26 159.5 241.34 139.44 172.98"/><polygon class="cls-3" points="139.44 172.98 143.11 171.9 163.17 240.26 159.5 241.34 139.44 172.98"/><path class="cls-1" d="M101.09,243.62h-21a.66.66,0,0,0-.64.64l-1,14.16h33.58c.63-5.93-3.72-7.72-8.84-10.27C101.25,246.68,101.09,243.62,101.09,243.62Z"/><path class="cls-2" d="M101.09,243.62h-21a.66.66,0,0,0-.64.64l-1,14.16h33.58c.63-5.93-3.72-7.72-8.84-10.27C101.25,246.68,101.09,243.62,101.09,243.62Z"/><rect class="cls-4" x="77.45" y="256.16" width="35.27" height="4.31" rx="0.64" ry="0.64"/><rect class="cls-2" x="77.45" y="256.16" width="35.27" height="4.31" rx="0.64" ry="0.64"/><path class="cls-1" d="M80.41,243.62h-21a.67.67,0,0,0-.64.64l-1,14.16H91.4c.63-5.93-3.72-7.72-8.84-10.27C80.57,246.68,80.41,243.62,80.41,243.62Z"/><path class="cls-2" d="M80.41,243.62h-21a.67.67,0,0,0-.64.64l-1,14.16H91.4c.63-5.93-3.72-7.72-8.84-10.27C80.57,246.68,80.41,243.62,80.41,243.62Z"/><rect class="cls-4" x="56.77" y="256.16" width="35.27" height="4.31" rx="0.64" ry="0.64"/><rect class="cls-2" x="56.77" y="256.16" width="35.27" height="4.31" rx="0.64" ry="0.64"/><path class="cls-1" d="M55.16,150c0,.21,0,.41,0,.62-.18,9.67,2.94,15,2.91,23.83-.05,19.15-.58,68.39-.52,69.38h44.75s.4-50.1.12-68.88c-.14-10,2.76-12.87,3.84-24.22a5.9,5.9,0,0,0,0-.73Z"/><path class="cls-2" d="M55.16,150c0,.21,0,.41,0,.62-.18,9.67,2.94,15,2.91,23.83-.05,19.15-.58,68.39-.52,69.38h44.75s.4-50.1.12-68.88c-.14-10,2.76-12.87,3.84-24.22a5.9,5.9,0,0,0,0-.73Z"/><path class="cls-2" d="M80.6,175.12c0-4.09,6.72-3.7,9.17-9.52"/><path class="cls-5" d="M101,243.76l.44,1.77a148.24,148.24,0,0,0-16.79-1.7Z"/><path class="cls-3" d="M101,243.76l.44,1.77a148.24,148.24,0,0,0-16.79-1.7Z"/><path class="cls-5" d="M80.31,243.76l.43,1.77A147.83,147.83,0,0,0,64,243.83Z"/><path class="cls-3" d="M80.31,243.76l.43,1.77A147.83,147.83,0,0,0,64,243.83Z"/><line class="cls-3" x1="80.63" y1="243.8" x2="80.63" y2="174.99"/><path class="cls-2" d="M141.14,167.47a14.86,14.86,0,0,1,3.52,5.22c1.39,3.24,7.37,2.65,4.4-4.49-1.26-3-3.91-5.95-8.35-9.75-8.45-6.64-39.51-31.64-47.37-49.51"/><path class="cls-2" d="M136.13,165.84c-.42-1-.81-2.61,1.2-2.61"/><path class="cls-1" d="M93.48,81.48c0,8.55,0,8.4,0,17a56.44,56.44,0,0,0,1.94,14.87c1.66,6.24,3.86,9.13,7.38,20.5,1.85,6,3.21,8.66,3.49,16.84H53.57C50.64,123,64.77,117.1,64.74,99.94l0-18.46C64.69,62.53,93.45,63.18,93.48,81.48Z"/><path class="cls-2" d="M93.48,81.48c0,8.55,0,8.4,0,17a56.44,56.44,0,0,0,1.94,14.87c1.66,6.24,3.86,9.13,7.38,20.5,1.85,6,3.21,8.66,3.49,16.84H53.57C50.64,123,64.77,117.1,64.74,99.94l0-18.46C64.69,62.53,93.45,63.18,93.48,81.48Z"/><path class="cls-1" d="M48.94,203.21c-.68,1.64-2.95,1.27-3.78-.11-.12-.19-4.37.19-4.46-3.82-.12-4.85,1.55-13.39,1.69-15.53,1.43-22.14,5.62-35.32,9.82-50.91,2.38-8.88,8.53-20.13,11.58-24,1-1.26,1.86-.13,2.68.07,1.3.3,2.47,1.11,3.67,5.64,1.26,4.79-1.12,16.32-5.29,19-3.36,14.47-8.48,32.07-9.42,46.93-.18,3-.55,5.54-.13,7.26s1.55,2.46,2.34,5.55c.5,2-2.92,6.74-4.4,6.07-1-.44-.7-1.15-1.7-4.51-.25-.83-1.46-4.11-2-4.39-1.33-.74-.75,10.75-.56,12.75"/><path class="cls-2" d="M47.69,196a14.71,14.71,0,0,0,1.12,6.2c.52,1.37-.36,2-1.36,2.07-1.41.14-2.48-.86-3.48-3.66a19,19,0,0,1-.77-7.43c.14-1.44-1.68-1.79-1.48-3.95,1.44-10.66,3.66-52.77,21.7-80.33"/><path class="cls-2" d="M47.72,197.19c-.2-2,.45-7.47,1.78-6.73.58.28,1.79,3.56,2,4.39.4,1.34.49,2.93.79,3.65,1,2.45,4.32-.72,4.89-2.92,1.09-4.21-1.75-7.31-1.92-7.84-.6-1.82,0-5,.13-7.26.94-14.86,6.06-32.46,9.42-46.93"/><path class="cls-1" d="M48,191.56c-.93,3-.19,11.46,2.52,13.1,1.32.8,3.13.18,3.35-.7.53-2.13-.61-2.69-1.12-5.77a23.43,23.43,0,0,1,.12-7.85c.42-2.08-2.28-3.79-4.29-.07A5.26,5.26,0,0,0,48,191.56Z"/><path class="cls-3" d="M48,191.56c-.93,3-.19,11.46,2.52,13.1,1.32.8,3.13.18,3.35-.7.53-2.13-.61-2.69-1.12-5.77a23.43,23.43,0,0,1,.12-7.85c.42-2.08-2.28-3.79-4.29-.07A5.26,5.26,0,0,0,48,191.56Z"/><path class="cls-3" d="M42.2,185.77c.09.54-2,7.36-1.69,12.16.16,2.68,1.73,6.13,4,4.94"/><path class="cls-1" d="M50,184.45a4.22,4.22,0,1,1-3.81,4.2,4,4,0,0,1,3.81-4.2"/><path class="cls-1" d="M43.26,185.16c.82,0,3.69,7.41.74,7.69s-1.24,5-2,5-1-2.64-1-3.87,1.47-8.85,2.28-8.85"/><path class="cls-5" d="M56.33,172.13l8.52-38.58c.64,4.55-2.54,12.2-2.9,14.86-1.82,13.56-5.08,30.32-3.06,43.68.59,3.91-2.22,4.92-2.08,4.64a7.67,7.67,0,0,0,.47-4.78c-.36-2-1.68-3-1-4Z"/><path class="cls-3" d="M56.33,172.13l8.52-38.58c.64,4.55-2.54,12.2-2.9,14.86-1.82,13.56-5.08,30.32-3.06,43.68.59,3.91-2.22,4.92-2.08,4.64a7.67,7.67,0,0,0,.47-4.78c-.36-2-1.68-3-1-4Z"/><path class="cls-3" d="M52.59,192.14c0-.87.77-1.15.89.17a5.24,5.24,0,0,1-.88,3.27"/><path class="cls-1" d="M162.7,256H140.2a22.5,22.5,0,0,1,45,0Z"/><path class="cls-3" d="M162.7,256H140.2a22.5,22.5,0,0,1,45,0Z"/><path class="cls-1" d="M163.15,242.68a2.85,2.85,0,1,1-2.85,2.85A2.86,2.86,0,0,1,163.15,242.68Z"/><path class="cls-3" d="M163.15,242.68a2.85,2.85,0,1,1-2.85,2.85A2.86,2.86,0,0,1,163.15,242.68Z"/><path class="cls-1" d="M139.69,167a3.9,3.9,0,1,1-2.64,4.84A3.9,3.9,0,0,1,139.69,167Z"/><path class="cls-3" d="M139.69,167a3.9,3.9,0,1,1-2.64,4.84A3.9,3.9,0,0,1,139.69,167Z"/><path class="cls-1" d="M137,168.18c0,.29,1.66,2.9,1.9,4.21a3.2,3.2,0,0,1,0,2.28c-.17.29-1.54-.42-1.79-.65-1.75-1.63-2.24-2.8-1.31-5,.14-.34,1.21-.61,1.23-.8"/><path class="cls-2" d="M140.36,166.73c-1.74-1.52-4.08-3.06-4.4-2-.22.6,1.19,3.8,1.59,4.57,1.63,3.11,1.95,4.17,1.57,5.17-.93,2.47-3.55,1.61-4.37.09a42.87,42.87,0,0,0-10-12.86c-5.9-5.36-12.69-10.68-19.06-16.51"/><path class="cls-5" d="M97.64,119.69l4,10.55L105,141.63c.18.08.14,0,.13.19-.12,1.69-.81-3-.89-3.38-.47-2.32-3.74-17.61-3.59-17.88l-4.9-7Z"/><path class="cls-5" d="M139.69,167c-1.06,2.16.44,4.54.86,6.62.06.3.36,1.29-.12,1s-.89,0-1.16-1.58c-.17-1.09-2.15-4.1-1.9-4.38a7.41,7.41,0,0,1,2.2-1.48.48.48,0,0,0,.12-.16"/><path class="cls-6" d="M92.2,91.44a1.67,1.67,0,1,1,1.67-1.67A1.67,1.67,0,0,1,92.2,91.44Z"/><path class="cls-2" d="M92.2,91.44a1.67,1.67,0,1,1,1.67-1.67A1.67,1.67,0,0,1,92.2,91.44Z"/><path class="cls-6" d="M78.18,88.1a1.67,1.67,0,1,1-1.68,1.67A1.67,1.67,0,0,1,78.18,88.1Z"/><path class="cls-2" d="M78.18,88.1a1.67,1.67,0,1,1-1.68,1.67A1.67,1.67,0,0,1,78.18,88.1Z"/><path class="cls-3" d="M91.57,85a3.44,3.44,0,0,1,1.93.3"/><path class="cls-3" d="M78.88,84.42a3.31,3.31,0,0,0-1.93.3"/><path class="cls-5" d="M83,91.54l5.06,0v0a2.53,2.53,0,1,1-5.06,0Z"/><path class="cls-3" d="M83,91.54l5.06,0v0a2.53,2.53,0,1,1-5.06,0Z"/><path class="cls-5" d="M93,88.9a.18.18,0,0,1,.19.19.19.19,0,0,1-.19.19.2.2,0,0,1-.19-.19A.19.19,0,0,1,93,88.9Z"/><path class="cls-2" d="M93,88.9a.18.18,0,0,1,.19.19.19.19,0,0,1-.19.19.2.2,0,0,1-.19-.19A.19.19,0,0,1,93,88.9Z"/><path class="cls-5" d="M78.77,89.28a.19.19,0,0,1-.19-.19.18.18,0,0,1,.19-.19.19.19,0,0,1,.19.19A.2.2,0,0,1,78.77,89.28Z"/><path class="cls-2" d="M78.77,89.28a.19.19,0,0,1-.19-.19.18.18,0,0,1,.19-.19.19.19,0,0,1,.19.19A.2.2,0,0,1,78.77,89.28Z"/><path class="cls-1" d="M64.89,102.15h28.5a2,2,0,1,1,0,4H64.89a2,2,0,0,1,0-4Z"/><path class="cls-3" d="M64.89,102.15h28.5a2,2,0,1,1,0,4H64.89a2,2,0,0,1,0-4Z"/><path class="cls-5" d="M93.51,106.1l.43,1.77a143.33,143.33,0,0,0-16.78-1.71Z"/><path class="cls-3" d="M93.51,106.1l.43,1.77a143.33,143.33,0,0,0-16.78-1.71Z"/><line class="cls-3" x1="64.73" y1="81.76" x2="108.57" y2="81.76"/><path class="cls-5" d="M93,81.69l.44,1.77a142.65,142.65,0,0,0-16.79-1.7Z"/><path class="cls-3" d="M93,81.69l.44,1.77a142.65,142.65,0,0,0-16.79-1.7Z"/><path class="cls-5" d="M156.87,232.37c.5-.24,3.76-1,3.91-.53.07.25.76,1.61.5,1.6-1.06,0-3.6.83-4.05.79-.08-.23-.57-1.76-.36-1.86"/><path class="cls-1" d="M163.48,38.51c-2.21,4.72-6.27,3.73-6.27,3.73a31.43,31.43,0,0,0,.54,3.36s6.88.38,8.45-6C165.58,39.42,163.48,38.51,163.48,38.51Z"/><path class="cls-7" d="M163.48,38.51c-2.21,4.72-6.27,3.73-6.27,3.73a31.43,31.43,0,0,0,.54,3.36s6.88.38,8.45-6C165.58,39.42,163.48,38.51,163.48,38.51Z"/><path class="cls-1" d="M198.59,89.12c4.61-2.42,7.23.82,7.23.82a29.81,29.81,0,0,0,1.61-3s-5.25-4.45-10.37-.3C197.46,87.12,198.59,89.12,198.59,89.12Z"/><path class="cls-7" d="M198.59,89.12c4.61-2.42,7.23.82,7.23.82a29.81,29.81,0,0,0,1.61-3s-5.25-4.45-10.37-.3C197.46,87.12,198.59,89.12,198.59,89.12Z"/><path class="cls-1" d="M137.43,65.7c-3.68-1.63-2.32-5.8-2.32-5.8.3-2.12-2.65-2.71-3.2.3,0,0-1.21,6.3,4.72,8.16C138.41,69,140,66.85,137.43,65.7Z"/><path class="cls-7" d="M137.43,65.7c-3.68-1.63-2.32-5.8-2.32-5.8.3-2.12-2.65-2.71-3.2.3,0,0-1.21,6.3,4.72,8.16C138.41,69,140,66.85,137.43,65.7Z"/><path class="cls-1" d="M138.42,81.93c-2.68.61-1.63-2-1.63-2,.42-2-2.64-2.71-3.19.3a4.45,4.45,0,0,0,1.15,3.59c1,1,2.23,1.28,4.33.91C141.31,84.52,141.46,81.23,138.42,81.93Z"/><path class="cls-7" d="M138.42,81.93c-2.68.61-1.63-2-1.63-2,.42-2-2.64-2.71-3.19.3a4.45,4.45,0,0,0,1.15,3.59c1,1,2.23,1.28,4.33.91C141.31,84.52,141.46,81.23,138.42,81.93Z"/><path class="cls-1" d="M134.37,43.5c4.22.11,3.11,3.1,5.85,5.22,1,.8,2.43.88,4.85,1.38,3.22.66,4.2,1.79,4.73,3.39,0,0-2.47,2.27-2.67,1.76-1.81-4.6-7,.36-11.39-7.42a2.42,2.42,0,0,0-2.15-1.27C133.51,46.27,134.16,44.83,134.37,43.5Z"/><path class="cls-7" d="M134.37,43.5c4.22.11,3.11,3.1,5.85,5.22,1,.8,2.43.88,4.85,1.38,3.22.66,4.2,1.79,4.73,3.39,0,0-2.47,2.27-2.67,1.76-1.81-4.6-7,.36-11.39-7.42a2.42,2.42,0,0,0-2.15-1.27C133.51,46.27,134.16,44.83,134.37,43.5Z"/><path class="cls-1" d="M158.18,95.18c-3.49,2.39-4.34-.68-7.8-.79-1.31,0-2.49.71-4.74,1.73-3,1.36-4.45,1-5.82,0,0,0,.67-3.29,1.13-3,4.17,2.66,5.42-4.37,13.58-.68a2.4,2.4,0,0,0,2.48-.23C157.25,92.44,157.57,94,158.18,95.18Z"/><path class="cls-7" d="M158.18,95.18c-3.49,2.39-4.34-.68-7.8-.79-1.31,0-2.49.71-4.74,1.73-3,1.36-4.45,1-5.82,0,0,0,.67-3.29,1.13-3,4.17,2.66,5.42-4.37,13.58-.68a2.4,2.4,0,0,0,2.48-.23C157.25,92.44,157.57,94,158.18,95.18Z"/><path class="cls-1" d="M162.14,60.72c2.72-3.21,4.33-3.24,9.1-2.83a3.94,3.94,0,0,0,3.82-2.48c.15.12.88,3.62.88,3.62-2.74,4.33-7,.5-9.58,2.64-.69.57-1.56,1.69-2,2Z"/><path class="cls-7" d="M162.14,60.72c2.72-3.21,4.33-3.24,9.1-2.83a3.94,3.94,0,0,0,3.82-2.48c.15.12.88,3.62.88,3.62-2.74,4.33-7,.5-9.58,2.64-.69.57-1.56,1.69-2,2Z"/><path class="cls-1" d="M122.22,68.42c1.58,3.91.85,5.34-1.73,9.37a4,4,0,0,0,.41,4.54c-.18.08-3.9,0-3.9,0-2.55-4.44,3.09-7.25,2.41-10.56-.18-.87-.77-2.17-.82-2.66Z"/><path class="cls-7" d="M122.22,68.42c1.58,3.91.85,5.34-1.73,9.37a4,4,0,0,0,.41,4.54c-.18.08-3.9,0-3.9,0-2.55-4.44,3.09-7.25,2.41-10.56-.18-.87-.77-2.17-.82-2.66Z"/><path class="cls-1" d="M156.37,73.43c-.17.41.63,3.59,6.44,4.77l-2.48,2.6c-4.84-.57-7.38-4-7.61-6.24C152.72,74.56,156.41,73.32,156.37,73.43Z"/><path class="cls-7" d="M156.37,73.43c-.17.41.63,3.59,6.44,4.77l-2.48,2.6c-4.84-.57-7.38-4-7.61-6.24C152.72,74.56,156.41,73.32,156.37,73.43Z"/><path class="cls-1" d="M179.35,79.11l4.06-1.31c.38.23,1.86,1.69.76,5.93-.21.81-1.06,1.93-1.15,1.35A7.92,7.92,0,0,0,179.35,79.11Z"/><path class="cls-7" d="M179.35,79.11l4.06-1.31c.38.23,1.86,1.69.76,5.93-.21.81-1.06,1.93-1.15,1.35A7.92,7.92,0,0,0,179.35,79.11Z"/><path class="cls-1" d="M123.13,51.89l-1.43,4c-.42.16-2.49.44-5.17-3-.51-.65-.88-2-.37-1.73A7.94,7.94,0,0,0,123.13,51.89Z"/><path class="cls-7" d="M123.13,51.89l-1.43,4c-.42.16-2.49.44-5.17-3-.51-.65-.88-2-.37-1.73A7.94,7.94,0,0,0,123.13,51.89Z"/><path class="cls-1" d="M183.63,84.86c.36-.45-4.21,1.85-4,5.65,0,.39,3.57.51,4,.6C183,89.26,182.93,85.73,183.63,84.86Z"/><path class="cls-7" d="M183.63,84.86c.36-.45-4.21,1.85-4,5.65,0,.39,3.57.51,4,.6C183,89.26,182.93,85.73,183.63,84.86Z"/><path class="cls-1" d="M116,51.76c.14.57,1.11-4.46-2-6.63-.32-.22-2.58,2.51-2.92,2.81C112.89,48.54,115.7,50.68,116,51.76Z"/><path class="cls-7" d="M116,51.76c.14.57,1.11-4.46-2-6.63-.32-.22-2.58,2.51-2.92,2.81C112.89,48.54,115.7,50.68,116,51.76Z"/><path class="cls-1" d="M187.91,64.33c3.94-1,4-5.3,9.72-3.55,1.87,1,.79,3.53-1.91,2.84-2.25-.57-3.63,2.58-5.69,3.58a5.58,5.58,0,0,1-2.45.49C185.35,67.75,185.05,65.06,187.91,64.33Z"/><path class="cls-7" d="M187.91,64.33c3.94-1,4-5.3,9.72-3.55,1.87,1,.79,3.53-1.91,2.84-2.25-.57-3.63,2.58-5.69,3.58a5.58,5.58,0,0,1-2.45.49C185.35,67.75,185.05,65.06,187.91,64.33Z"/><path class="cls-1" d="M104.28,63.54c-3.76-1.57-6.4,1.82-9.9-3-.88-2,1.49-3.29,3.23-1.12,1.61,2,6.17-.51,9,1.65C108.32,62.42,107,64.68,104.28,63.54Z"/><path class="cls-7" d="M104.28,63.54c-3.76-1.57-6.4,1.82-9.9-3-.88-2,1.49-3.29,3.23-1.12,1.61,2,6.17-.51,9,1.65C108.32,62.42,107,64.68,104.28,63.54Z"/><path class="cls-1" d="M133.17,33.6a3.89,3.89,0,0,0,1.23-3c0-.29-3.21.22-3.21.22,0,.76-.56,3.14-1.41,3.13C131.29,34.34,132.26,34.61,133.17,33.6Z"/><path class="cls-8" d="M133.17,33.6a3.89,3.89,0,0,0,1.23-3c0-.29-3.21.22-3.21.22,0,.76-.56,3.14-1.41,3.13C131.29,34.34,132.26,34.61,133.17,33.6Z"/><path class="cls-1" d="M123.63,33.72a32.19,32.19,0,0,1,3.52-2.18c.87,1.47,3.64,2.93,5.63,2.39a7.19,7.19,0,0,1-4.65,1.49A9.45,9.45,0,0,1,123.63,33.72Z"/><path class="cls-8" d="M123.63,33.72a32.19,32.19,0,0,1,3.52-2.18c.87,1.47,3.64,2.93,5.63,2.39a7.19,7.19,0,0,1-4.65,1.49A9.45,9.45,0,0,1,123.63,33.72Z"/><path class="cls-1" d="M147.46,115.59a3.94,3.94,0,0,0,1.23-3c0-.29-3.21.22-3.21.22,0,.76-.56,3.14-1.41,3.13C145.58,116.32,146.55,116.6,147.46,115.59Z"/><path class="cls-8" d="M147.46,115.59a3.94,3.94,0,0,0,1.23-3c0-.29-3.21.22-3.21.22,0,.76-.56,3.14-1.41,3.13C145.58,116.32,146.55,116.6,147.46,115.59Z"/><path class="cls-1" d="M137.92,115.7a31.91,31.91,0,0,1,3.52-2.17c.87,1.46,3.64,2.92,5.62,2.38a7.06,7.06,0,0,1-4.64,1.49A9.4,9.4,0,0,1,137.92,115.7Z"/><path class="cls-8" d="M137.92,115.7a31.91,31.91,0,0,1,3.52-2.17c.87,1.46,3.64,2.92,5.62,2.38a7.06,7.06,0,0,1-4.64,1.49A9.4,9.4,0,0,1,137.92,115.7Z"/><path class="cls-1" d="M171.63,105.32a4.2,4.2,0,0,0,3.24,1.2c.3,0-.37-3.42-.37-3.42-.81,0-3.37-.47-3.4-1.37C170.77,103.35,170.52,104.4,171.63,105.32Z"/><path class="cls-8" d="M171.63,105.32a4.2,4.2,0,0,0,3.24,1.2c.3,0-.37-3.42-.37-3.42-.81,0-3.37-.47-3.4-1.37C170.77,103.35,170.52,104.4,171.63,105.32Z"/><path class="cls-1" d="M171.11,95.16a32.81,32.81,0,0,1,2.47,3.66c-1.53,1-3,4-2.31,6.1a7.64,7.64,0,0,1-1.78-4.9A10.19,10.19,0,0,1,171.11,95.16Z"/><path class="cls-8" d="M171.11,95.16a32.81,32.81,0,0,1,2.47,3.66c-1.53,1-3,4-2.31,6.1a7.64,7.64,0,0,1-1.78-4.9A10.19,10.19,0,0,1,171.11,95.16Z"/></svg>